{
    "asset" : {
        "generator" : "Khronos glTF Blender I/O v1.8.19",
        "version" : "2.0"
    },
    "scene" : 0,
    "scenes" : [
        {
            "name" : "Scene",
            "nodes" : [
                0,
                1,
                2,
                3
            ]
        }
    ],
    "nodes" : [
        {
            "mesh" : 0,
            "name" : "poleLightA",
            "translation" : [
                0.7146409749984741,
                1.0659117698669434,
                0.23380741477012634
            ]
        },
        {
            "mesh" : 1,
            "name" : "portalLight",
            "rotation" : [
                0.7071067690849304,
                0,
                0,
                0.7071068286895752
            ],
            "translation" : [
                0,
                0.8510270118713379,
                -1.7743580341339111
            ]
        },
        {
            "mesh" : 2,
            "name" : "poleLightB",
            "rotation" : [
                0,
                -1,
                0,
                7.549790126404332e-08
            ],
            "translation" : [
                -0.6417164206504822,
                1.0659117698669434,
                0.23380739986896515
            ]
        },
        {
            "mesh" : 3,
            "name" : "baked"
        }
    ],
    "meshes" : [
        {
            "name" : "Cube.005",
            "primitives" : [
                {
                    "attributes" : {
                        "POSITION" : 0,
                        "TEXCOORD_0" : 1
                    },
                    "indices" : 2
                }
            ]
        },
        {
            "name" : "Circle",
            "primitives" : [
                {
                    "attributes" : {
                        "POSITION" : 3,
                        "TEXCOORD_0" : 4
                    },
                    "indices" : 5
                }
            ]
        },
        {
            "name" : "Cube.055",
            "primitives" : [
                {
                    "attributes" : {
                        "POSITION" : 6,
                        "TEXCOORD_0" : 7
                    },
                    "indices" : 2
                }
            ]
        },
        {
            "name" : "Plane.002",
            "primitives" : [
                {
                    "attributes" : {
                        "POSITION" : 8,
                        "TEXCOORD_0" : 9
                    },
                    "indices" : 10
                }
            ]
        }
    ],
    "accessors" : [
        {
            "bufferView" : 0,
            "componentType" : 5126,
            "count" : 20,
            "max" : [
                0.06930621713399887,
                0.0238338652998209,
                0.0728195533156395
            ],
            "min" : [
                -0.06930574029684067,
                -0.13335852324962616,
                -0.0728195309638977
            ],
            "type" : "VEC3"
        },
        {
            "bufferView" : 1,
            "componentType" : 5126,
            "count" : 20,
            "type" : "VEC2"
        },
        {
            "bufferView" : 2,
            "componentType" : 5123,
            "count" : 30,
            "type" : "SCALAR"
        },
        {
            "bufferView" : 3,
            "componentType" : 5126,
            "count" : 33,
            "max" : [
                0.7214183211326599,
                0,
                0.7214183211326599
            ],
            "min" : [
                -0.7214183211326599,
                0,
                -0.7214183211326599
            ],
            "type" : "VEC3"
        },
        {
            "bufferView" : 4,
            "componentType" : 5126,
            "count" : 33,
            "type" : "VEC2"
        },
        {
            "bufferView" : 5,
            "componentType" : 5123,
            "count" : 96,
            "type" : "SCALAR"
        },
        {
            "bufferView" : 6,
            "componentType" : 5126,
            "count" : 20,
            "max" : [
                0.06930621713399887,
                0.0238338652998209,
                0.0728195533156395
            ],
            "min" : [
                -0.06930574029684067,
                -0.13335852324962616,
                -0.0728195309638977
            ],
            "type" : "VEC3"
        },
        {
            "bufferView" : 7,
            "componentType" : 5126,
            "count" : 20,
            "type" : "VEC2"
        },
        {
            "bufferView" : 8,
            "componentType" : 5126,
            "count" : 1442,
            "max" : [
                2,
                1.7663004398345947,
                2
            ],
            "min" : [
                -2,
                0,
                -2.0141689777374268
            ],
            "type" : "VEC3"
        },
        {
            "bufferView" : 9,
            "componentType" : 5126,
            "count" : 1442,
            "type" : "VEC2"
        },
        {
            "bufferView" : 10,
            "componentType" : 5123,
            "count" : 3879,
            "type" : "SCALAR"
        }
    ],
    "bufferViews" : [
        {
            "buffer" : 0,
            "byteLength" : 240,
            "byteOffset" : 0
        },
        {
            "buffer" : 0,
            "byteLength" : 160,
            "byteOffset" : 240
        },
        {
            "buffer" : 0,
            "byteLength" : 60,
            "byteOffset" : 400
        },
        {
            "buffer" : 0,
            "byteLength" : 396,
            "byteOffset" : 460
        },
        {
            "buffer" : 0,
            "byteLength" : 264,
            "byteOffset" : 856
        },
        {
            "buffer" : 0,
            "byteLength" : 192,
            "byteOffset" : 1120
        },
        {
            "buffer" : 0,
            "byteLength" : 240,
            "byteOffset" : 1312
        },
        {
            "buffer" : 0,
            "byteLength" : 160,
            "byteOffset" : 1552
        },
        {
            "buffer" : 0,
            "byteLength" : 17304,
            "byteOffset" : 1712
        },
        {
            "buffer" : 0,
            "byteLength" : 11536,
            "byteOffset" : 19016
        },
        {
            "buffer" : 0,
            "byteLength" : 7758,
            "byteOffset" : 30552
        }
    ],
    "buffers" : [
        {
            "byteLength" : 38312,
            "uri" : "data:application/octet-stream;base64,"
        }
    ]
}
