<?xml version="1.0" encoding="UTF-8"?>
<svg width="658px" height="124px" viewBox="0 0 658 124" version="1.1" xmlns="http://www.w3.org/2000/svg" xmlns:xlink="http://www.w3.org/1999/xlink">
    <title>logo_white</title>
    <defs>
        <linearGradient x1="9.1249353%" y1="39.4146662%" x2="109.922037%" y2="77.1092351%" id="linearGradient-1">
            <stop stop-color="#0073FF" offset="0%"></stop>
            <stop stop-color="#00109D" offset="100%"></stop>
        </linearGradient>
    </defs>
    <g id="icons" stroke="none" stroke-width="1" fill="none" fill-rule="evenodd">
        <g id="svg" transform="translate(-268.000000, -218.000000)" fill-rule="nonzero">
            <g id="logo_white" transform="translate(268.000000, 218.029437)">
                <path d="M49.9759881,10.9705627 L48.027,29.0275627 L72.023,29.0275627 L73.9715763,10.9705627 L92.2539292,10.9705627 L90.335,29.0275627 L116.836765,29.0277056 L114,46.7791342 L88.449,46.7785627 L85.646,73.1615627 L110.45,73.1619913 L107.45,90.9134199 L83.76,90.9125627 L81.8426471,108.970563 L63.3970588,108.970563 L65.345,90.9125627 L41.349,90.9125627 L39.4014706,108.970563 L21.1191176,108.970563 L23.067,90.9125627 L0,90.9134199 L3,73.1619913 L24.983,73.1615627 L27.829,46.7785627 L8.55,46.7791342 L11.55,29.0277056 L29.745,29.0275627 L31.6936351,10.9705627 L49.9759881,10.9705627 Z M52.1069761,37.9705627 L49.5155651,37.9705627 L48.9830724,43.8293127 L48.6041865,43.8293127 C45.6575902,43.8293127 43.0434531,46.215974 42.7768208,49.1495952 L36.8920703,49.1505627 L36.6575781,51.7305627 L42.5422407,51.7305627 L42.2295845,55.1705627 L36.3449219,55.1705627 L36.1104297,57.7505627 L41.9950923,57.7505627 L41.682436,61.1905627 L35.7977734,61.1905627 L35.5632812,63.7705627 L41.4479438,63.7705627 L41.1352876,67.2105627 L35.250625,67.2105627 L35.0161328,69.7905627 L40.9007954,69.7905627 C40.6340752,72.7251515 42.8143724,75.1118127 45.7609687,75.1118127 L46.1398546,75.1118127 L45.607362,80.9705627 L48.198773,80.9705627 L48.7312657,75.1118127 L52.1864804,75.1118127 L51.6539877,80.9705627 L54.2453988,80.9705627 L54.7778914,75.1118127 L58.2331062,75.1118127 L57.7006135,80.9705627 L60.2920245,80.9705627 L60.8245172,75.1118127 L64.2797319,75.1118127 L63.7472393,80.9705627 L66.3386503,80.9705627 L66.871143,75.1118127 L67.3040166,75.1118127 C70.2506129,75.1118127 72.86475,72.7251515 73.1313823,69.7915302 L79.0161328,69.7905627 L79.250625,67.2105627 L73.3659624,67.2105627 L73.6786187,63.7705627 L79.5632812,63.7705627 L79.7977734,61.1905627 L73.9131109,61.1905627 L74.2257671,57.7505627 L80.1104297,57.7505627 L80.3449219,55.1705627 L74.4602593,55.1705627 L74.7729155,51.7305627 L80.6575781,51.7305627 L80.8920703,49.1505627 L75.0074077,49.1505627 C75.2741279,46.215974 73.0938307,43.8293127 70.1472344,43.8293127 L69.7143608,43.8293127 L70.2468534,37.9705627 L67.6554424,37.9705627 L67.1229497,43.8293127 L63.667735,43.8293127 L64.2002277,37.9705627 L61.6088166,37.9705627 L61.0763239,43.8293127 L57.6211092,43.8293127 L58.1536019,37.9705627 L55.5621909,37.9705627 L55.0296982,43.8293127 L51.5744835,43.8293127 L52.1069761,37.9705627 Z M69.8540652,47.0543127 C71.0145854,47.0543127 71.8732404,47.994239 71.7682319,49.1495952 L69.8921185,69.7915302 C69.78711,70.9468865 68.7575981,71.8868127 67.5971318,71.8868127 L46.054084,71.8868127 C44.8936177,71.8868127 44.0349627,70.9468865 44.1399713,69.7915302 L46.0160846,49.1495952 C46.1210932,47.994239 47.150605,47.0543127 48.3110713,47.0543127 L69.8540652,47.0543127 Z M68.8175418,49.9705627 L48.8175418,49.9705627 L47.0906613,68.9705627 L67.0906613,68.9705627 L68.8175418,49.9705627 Z" id="Combined-Shape" fill="url(#linearGradient-1)"></path>
                <path d="M19.0000125,11.1248327 C23.0625212,11.1247815 26.9697676,12.6774215 29.9141509,15.4618337 C30.1359835,15.6770573 30.4916676,15.6752192 30.7098477,15.4563623 L32.8292348,13.3279784 C32.9395731,13.2170745 33.0010067,13.0670478 32.9999875,12.9110148 C32.9989428,12.7549818 32.9355303,12.6057722 32.8237346,12.496322 C25.0959596,5.12864299 12.9040404,5.12864299 5.17626535,12.496322 C5.06446971,12.6057722 5.0010572,12.7549818 5.00001248,12.9110148 C4.99899335,13.0670478 5.06042687,13.2170745 5.17076519,13.3279784 L7.29017383,15.4563623 C7.51018016,15.6752192 7.86401651,15.6770359 8.08584907,15.4618337 C11.0303373,12.6775682 14.9375259,11.1249465 19.0000125,11.1248114 L19.0000125,11.1248327 Z M19.0000107,18.0480004 C21.233075,18.0480004 23.3854631,18.8723474 25.0391845,20.3642293 C25.2631636,20.5767042 25.616871,20.5718397 25.8348597,20.3532865 L27.9505944,18.2230646 C28.0623874,18.1117016 28.1245679,17.960361 28.1232129,17.8029848 C28.1218132,17.6456086 28.0569932,17.495368 27.9432681,17.3859582 C22.9043506,12.7234503 15.1011711,12.7234503 10.0622536,17.3859582 C9.94851894,17.4953659 9.8836908,17.6456095 9.88228685,17.802991 C9.88092798,17.9603725 9.94310892,18.1117193 10.0549057,18.223086 L12.1706404,20.3514698 C12.3891386,20.5695177 12.7428549,20.5735651 12.9663371,20.3605746 C14.6194136,18.8711893 16.7696993,18.0457298 19.0000107,18.0443457 L19.0000107,18.0480004 Z M23.0701278,23.1254816 C23.1831925,23.0147795 23.2453235,22.8625702 23.2418502,22.7047937 C23.238377,22.5470172 23.1696075,22.3976595 23.0517797,22.2919872 C20.7128657,20.3238739 17.2871343,20.3238739 14.9482203,22.2919872 C14.8306393,22.3979168 14.7622091,22.5474168 14.7590857,22.7051908 C14.7559623,22.8629648 14.8184225,23.015029 14.9317199,23.1254816 L18.5948253,26.8022784 C18.7022283,26.9099823 18.8484191,26.9705627 19.0009239,26.9705627 C19.1534286,26.9705627 19.2996194,26.9099823 19.4070225,26.8022784 L23.0682801,23.1254816 L23.0701278,23.1254816 Z" id="Shape" fill="#74B3FF" transform="translate(19.000000, 16.970563) rotate(-45.000000) translate(-19.000000, -16.970563) "></path>
                <polygon id="Path" fill="#08093A" points="182.925859 22.6205627 171.770859 101.970563 150.240703 101.970563 161.395703 22.6205627"></polygon>
                <path d="M220.52457,43.2504846 C227.878581,43.2504846 233.79599,44.272607 238.276797,46.3168518 C242.757604,48.3610966 245.823073,51.6421904 247.473203,56.1601331 C249.123333,60.6780758 249.411732,66.7272555 248.338398,74.3076721 C247.341732,81.4795992 245.593971,87.1930627 243.095117,91.4480627 C240.596263,95.7030627 237.052826,98.7550549 232.464805,100.604039 C227.876784,102.453024 221.905768,103.377516 214.551758,103.377516 C207.274414,103.377516 201.376172,102.370068 196.857031,100.355172 C192.337891,98.3402763 189.219115,95.0885315 187.500703,90.5999377 C185.782292,86.111344 185.451367,80.14512 186.50793,72.7012659 C187.563294,65.410745 189.325729,59.6233101 191.795234,55.3389612 C194.26474,51.0546122 197.827643,47.9687789 202.483945,46.0814612 C207.140247,44.1941435 213.153789,43.2504846 220.52457,43.2504846 Z M220.168789,57.7566565 C217.630404,57.7566565 215.621198,58.1920992 214.141172,59.0629846 C212.661146,59.93387 211.484792,61.551357 210.612109,63.9154456 C209.739427,66.2795341 208.970664,69.7436096 208.30582,74.3076721 C207.776341,78.233245 207.582878,81.2507971 207.72543,83.3603284 C207.867982,85.4698596 208.548698,86.9154456 209.767578,87.6970862 C210.986458,88.4787268 212.818372,88.8695471 215.26332,88.8695471 C217.759779,88.8695471 219.718372,88.4254195 221.139102,87.5371643 C222.559831,86.6489091 223.691563,85.0335185 224.534297,82.6909924 C225.377031,80.3484664 226.122435,77.0185575 226.770508,72.7012659 C227.359883,68.6223596 227.56832,65.5176591 227.39582,63.3871643 C227.22332,61.2566695 226.572253,59.7856279 225.442617,58.9740393 C224.312982,58.1624508 222.555039,57.7566565 220.168789,57.7566565 Z" id="Shape" fill="#08093A"></path>
                <path d="M293.969141,22.6205627 L282.814141,101.970563 L261.219297,101.970563 L272.374297,22.6205627 L293.969141,22.6205627 Z M316.740937,22.6205627 L314.435547,39.061969 L247.358203,39.061969 L249.690547,22.6205627 L316.740937,22.6205627 Z" id="Shape" fill="#08093A"></path>
                <path d="M374.225664,21.0626721 C378.533372,21.079443 383.085156,21.3597555 387.881016,21.9036096 C392.676875,22.4474638 397.220273,23.408193 401.511211,24.7857971 L399.586758,38.7277502 C397.217279,38.6331148 394.549518,38.5771122 391.583477,38.5597424 C388.617435,38.5423726 385.551966,38.5145211 382.38707,38.4761877 C379.222174,38.4378544 376.069258,38.4186877 372.92832,38.4186877 C371.330299,38.4186877 369.945208,38.4761877 368.773047,38.5911877 C367.600885,38.7061877 366.612604,38.9307971 365.808203,39.2650159 C365.003802,39.5992346 364.364115,40.1161357 363.889141,40.815719 C363.414167,41.5153023 363.073659,42.4412919 362.867617,43.5936877 C362.73944,44.5987398 362.788555,45.4825029 363.014961,46.2449768 C363.241367,47.0074508 363.794206,47.6962529 364.673477,48.3113831 C365.552747,48.9265133 366.854883,49.6347815 368.579883,50.4361877 L382.414023,56.6300159 C386.697773,58.5610575 389.933945,60.6376461 392.122539,62.8597815 C394.311133,65.0819169 395.722578,67.6514482 396.356875,70.5683752 C396.991172,73.4853023 397.069336,76.8987659 396.591367,80.8087659 C395.884596,86.7959534 394.385404,91.4432711 392.093789,94.750719 C389.802174,98.0581669 386.432135,100.347985 381.983672,101.620172 C377.535208,102.89236 371.633971,103.528453 364.279961,103.528453 C361.191732,103.528453 356.990638,103.280185 351.67668,102.783649 C346.362721,102.287112 340.764258,101.332672 334.881289,99.9203284 L336.947695,84.7960315 C341.411133,84.889469 345.423255,84.9936877 348.984062,85.1086877 C352.54487,85.2236877 355.541758,85.2961617 357.974727,85.3261096 C360.407695,85.3560575 362.191992,85.3710315 363.327617,85.3710315 C366.155898,85.3710315 368.388516,85.2167997 370.025469,84.9083362 C371.662422,84.5998726 372.889089,84.0533232 373.705469,83.2686877 C374.521849,82.4840523 375.041445,81.3783752 375.264258,79.9516565 C375.470299,78.7920732 375.455625,77.8651851 375.220234,77.1709924 C374.984844,76.4767997 374.48681,75.8622685 373.726133,75.3273987 C372.965456,74.7925289 371.900508,74.2220211 370.531289,73.6158752 L355.755586,66.7733752 C351.482617,64.7405107 348.251836,62.5303544 346.063242,60.1429065 C343.874648,57.7554586 342.473685,55.118245 341.860352,52.2312659 C341.247018,49.3442867 341.140404,46.2386877 341.540508,42.914469 C342.095143,38.5265002 343.149609,34.9063961 344.703906,32.0541565 C346.258203,29.2019169 348.371927,26.98637 351.045078,25.4075159 C353.718229,23.8286617 356.986445,22.7098075 360.849727,22.0509534 C364.713008,21.3920992 369.171654,21.0626721 374.225664,21.0626721 Z" id="Path" fill="#08093A"></path>
                <path d="M452.520898,43.2504846 C458.146315,43.2504846 462.285117,44.6577372 464.937305,47.4722424 C467.589492,50.2867476 468.540638,54.3216305 467.790742,59.5768909 L461.810742,101.970563 L440.918477,101.970563 L446.107852,65.3718127 C446.39056,63.5294169 446.309102,62.3186226 445.863477,61.7394299 C445.417852,61.1602372 444.47569,60.8706409 443.036992,60.8706409 C440.780117,60.8706409 438.505872,61.4318648 436.214258,62.5543127 C433.922643,63.6767607 431.051237,65.6054065 427.600039,68.3402502 L424.513008,58.9605627 C429.56582,53.5543648 434.467995,49.584469 439.219531,47.0508752 C443.971068,44.5172815 448.404857,43.2504846 452.520898,43.2504846 Z M435.351758,21.4705627 L432.78043,40.1850159 C432.278503,44.0818388 431.464518,47.8495862 430.338477,51.4882581 C429.212435,55.1269299 428.194805,58.0058232 427.285586,60.1249377 L429.664648,61.2911096 L424.056602,101.970563 L403.162539,101.970563 L414.459492,21.4705627 L435.351758,21.4705627 Z" id="Shape" fill="#08093A"></path>
                <path d="M511.247266,43.2504846 C513.240599,43.2504846 515.54599,43.352607 518.163438,43.5568518 C520.780885,43.7610966 523.432474,44.0417086 526.118203,44.3986877 C528.803932,44.7556669 531.27763,45.1321122 533.539297,45.5280237 C535.800964,45.9239351 537.563698,46.3135575 538.8275,46.6968909 L523.340234,57.505094 C520.902474,57.4116565 518.623737,57.3517607 516.504023,57.3254065 C514.38431,57.2990523 512.087005,57.2858752 509.612109,57.2858752 C507.79487,57.2858752 506.193255,57.4460966 504.807266,57.7665393 C503.421276,58.086982 502.237135,58.7236747 501.254844,59.6766174 C500.272552,60.6295601 499.414844,62.0646643 498.681719,63.9819299 C497.948594,65.8991956 497.355625,68.4552502 496.902813,71.650094 C496.313438,75.9422294 495.957656,79.2125419 495.835469,81.4610315 C495.713281,83.7095211 496.003177,85.2266825 496.705156,86.0125159 C497.407135,86.7983492 498.608047,87.161318 500.307891,87.1014221 C502.059245,86.9828284 503.925299,86.2404195 505.906055,84.8741956 C507.88681,83.5079716 509.829831,81.7149898 511.735117,79.4952502 C513.640404,77.2755107 515.334557,74.8437398 516.817578,72.1999377 L520.28375,78.248219 C518.960052,83.3585315 516.961927,87.7411096 514.289375,91.3959534 C511.616823,95.0507971 508.402214,97.8829716 504.645547,99.8924768 C500.88888,101.901982 496.626693,103.054677 491.858984,103.350563 C486.582161,103.647646 482.594297,102.60486 479.895391,100.222203 C477.196484,97.8395471 475.561328,94.2511877 474.989922,89.4571252 C474.418516,84.6630627 474.639531,78.8441825 475.652969,72.0004846 C476.691563,65.2993388 478.200039,60.0171252 480.178398,56.153844 C482.156758,52.2905627 484.632552,49.440719 487.605781,47.6043127 C490.57901,45.7679065 494.043685,44.5831669 497.999805,44.050094 C501.955924,43.5170211 506.371745,43.2504846 511.247266,43.2504846 Z M518.353906,45.0958752 L538.8275,46.6968909 L531.034453,101.970563 L514.87875,101.970563 L514.884141,89.2792346 L512.248125,87.6476721 L518.353906,45.0958752 Z" id="Shape" fill="#08093A"></path>
                <path d="M567.036641,44.8083752 L567.717656,57.3721252 L569.564844,58.8311877 L563.714219,101.970563 L542.732109,101.970563 L550.756953,44.8083752 L567.036641,44.8083752 Z M594.866641,43.2504846 L590.494844,62.4123596 L585.663047,62.4123596 C583.298359,62.4123596 580.724935,62.7489742 577.942773,63.4222034 C575.160612,64.0954325 571.569557,65.1501982 567.169609,66.5865002 L566.353828,54.7468909 C570.709453,50.84887 574.971042,47.9582971 579.138594,46.0751721 C583.306146,44.1920471 587.264661,43.2504846 591.014141,43.2504846 L594.866641,43.2504846 Z" id="Shape" fill="#08093A"></path>
                <path d="M641.267344,43.4283752 C645.637344,43.4283752 649.142448,44.5663961 651.782656,46.8424377 C654.422865,49.1184794 656.187396,52.5559013 657.07625,57.1547034 C657.965104,61.7535055 657.932161,67.6280888 656.977422,74.7784534 C656.176016,80.8279325 654.98319,85.7396904 653.398945,89.5137268 C651.814701,93.2877633 649.881263,96.1819299 647.598633,98.1962268 C645.316003,100.210524 642.705143,101.607295 639.766055,102.386539 C636.826966,103.165784 633.588698,103.555406 630.05125,103.555406 C628.21125,103.555406 626.080156,103.463766 623.657969,103.280485 C621.235781,103.097203 618.750104,102.816292 616.200937,102.43775 C613.651771,102.059209 611.259232,101.549196 609.02332,100.907711 C606.787409,100.266227 604.927344,99.4872815 603.443125,98.5708752 L605.822187,90.3034534 C608.869687,90.338193 611.675508,90.3687398 614.239648,90.395094 C616.803789,90.4214482 619.73,90.4346252 623.018281,90.4346252 C625.368594,90.4346252 627.266393,90.2297815 628.71168,89.820094 C630.156966,89.4104065 631.296784,88.6656018 632.131133,87.5856799 C632.965482,86.5057581 633.641107,84.9625419 634.158008,82.9560315 C634.674909,80.9495211 635.159766,78.349443 635.612578,75.1557971 C636.218724,70.9642867 636.519401,67.7589612 636.514609,65.5398206 C636.509818,63.3206799 636.160924,61.788844 635.46793,60.9443127 C634.774935,60.0997815 633.667161,59.6775159 632.144609,59.6775159 C630.762214,59.6775159 629.175872,60.0833101 627.385586,60.8948987 C625.595299,61.7064872 623.801719,62.802581 622.004844,64.1831799 C620.207969,65.5637789 618.588984,67.1315523 617.147891,68.8865002 L613.351094,60.7286877 C614.27349,59.3355107 615.632826,57.6713049 617.429102,55.7360706 C619.225378,53.8008362 621.369948,51.8895601 623.862812,50.0022424 C626.355677,48.1149247 629.084232,46.5474508 632.048477,45.2998206 C635.012721,44.0521904 638.085677,43.4283752 641.267344,43.4283752 Z M617.866641,44.8083752 L617.683359,58.8815002 L619.848594,60.5130627 L614.977266,98.9176721 L613.764375,100.782828 C613.806302,102.717464 613.774258,104.644912 613.668242,106.565172 C613.562227,108.485433 613.317552,110.548844 612.934219,112.755406 L611.245156,123.270719 L590.325937,123.270719 L601.267109,44.8083752 L617.866641,44.8083752 Z" id="Shape" fill="#08093A"></path>
            </g>
        </g>
    </g>
</svg>