<svg xmlns="http://www.w3.org/2000/svg" width="669" height="126" viewBox="0 0 669 126"><defs><linearGradient id="a" x1="121.167%" x2="50%" y1="80.081%" y2="50%"><stop offset=".025%" stop-color="#0035C2"/><stop offset="100%" stop-color="#5F56FF"/></linearGradient></defs><g fill="none" fill-rule="evenodd" transform="translate(0 1)"><polygon fill="#08093A" fill-rule="nonzero" points="193.926 23.65 182.771 103 161.241 103 172.396 23.65"/><path fill="#08093A" fill-rule="nonzero" d="M231.52457 44.2799219C238.878581 44.2799219 244.79599 45.3020443 249.276797 47.3462891 253.757604 49.3905339 256.823073 52.6716276 258.473203 57.1895703 260.123333 61.707513 260.411732 67.7566927 259.338398 75.3371094 258.341732 82.5090365 256.593971 88.2225 254.095117 92.4775 251.596263 96.7325 248.052826 99.7844922 243.464805 101.633477 238.876784 103.482461 232.905768 104.406953 225.551758 104.406953 218.274414 104.406953 212.376172 103.399505 207.857031 101.384609 203.337891 99.3697135 200.219115 96.1179688 198.500703 91.629375 196.782292 87.1407813 196.451367 81.1745573 197.50793 73.7307031 198.563294 66.4401823 200.325729 60.6527474 202.795234 56.3683984 205.26474 52.0840495 208.827643 48.9982161 213.483945 47.1108984 218.140247 45.2235807 224.153789 44.2799219 231.52457 44.2799219ZM231.168789 58.7860938C228.630404 58.7860938 226.621198 59.2215365 225.141172 60.0924219 223.661146 60.9633073 222.484792 62.5807943 221.612109 64.9448828 220.739427 67.3089714 219.970664 70.7730469 219.30582 75.3371094 218.776341 79.2626823 218.582878 82.2802344 218.72543 84.3897656 218.867982 86.4992969 219.548698 87.9448828 220.767578 88.7265234 221.986458 89.5081641 223.818372 89.8989844 226.26332 89.8989844 228.759779 89.8989844 230.718372 89.4548568 232.139102 88.5666016 233.559831 87.6783464 234.691563 86.0629557 235.534297 83.7204297 236.377031 81.3779036 237.122435 78.0479948 237.770508 73.7307031 238.359883 69.6517969 238.56832 66.5470964 238.39582 64.4166016 238.22332 62.2861068 237.572253 60.8150651 236.442617 60.0034766 235.312982 59.191888 233.555039 58.7860938 231.168789 58.7860938ZM304.969141 23.65 293.814141 103 272.219297 103 283.374297 23.65 304.969141 23.65ZM327.740937 23.65 325.435547 40.0914062 258.358203 40.0914062 260.690547 23.65 327.740937 23.65ZM385.225664 22.0921094C389.533372 22.1088802 394.085156 22.3891927 398.881016 22.9330469 403.676875 23.476901 408.220273 24.4376302 412.511211 25.8152344L410.586758 39.7571875C408.217279 39.6625521 405.549518 39.6065495 402.583477 39.5891797 399.617435 39.5718099 396.551966 39.5439583 393.38707 39.505625 390.222174 39.4672917 387.069258 39.448125 383.92832 39.448125 382.330299 39.448125 380.945208 39.505625 379.773047 39.620625 378.600885 39.735625 377.612604 39.9602344 376.808203 40.2944531 376.003802 40.6286719 375.364115 41.1455729 374.889141 41.8451563 374.414167 42.5447396 374.073659 43.4707292 373.867617 44.623125 373.73944 45.6281771 373.788555 46.5119401 374.014961 47.2744141 374.241367 48.036888 374.794206 48.7256901 375.673477 49.3408203 376.552747 49.9559505 377.854883 50.6642188 379.579883 51.465625L393.414023 57.6594531C397.697773 59.5904948 400.933945 61.6670833 403.122539 63.8892188 405.311133 66.1113542 406.722578 68.6808854 407.356875 71.5978125 407.991172 74.5147396 408.069336 77.9282031 407.591367 81.8382031 406.884596 87.8253906 405.385404 92.4727083 403.093789 95.7801563 400.802174 99.0876042 397.432135 101.377422 392.983672 102.649609 388.535208 103.921797 382.633971 104.557891 375.279961 104.557891 372.191732 104.557891 367.990638 104.309622 362.67668 103.813086 357.362721 103.316549 351.764258 102.362109 345.881289 100.949766L347.947695 85.8254688C352.411133 85.9189063 356.423255 86.023125 359.984063 86.138125 363.54487 86.253125 366.541758 86.325599 368.974727 86.3555469 371.407695 86.3854948 373.191992 86.4004688 374.327617 86.4004688 377.155898 86.4004688 379.388516 86.246237 381.025469 85.9377734 382.662422 85.6293099 383.889089 85.0827604 384.705469 84.298125 385.521849 83.5134896 386.041445 82.4078125 386.264258 80.9810938 386.470299 79.8215104 386.455625 78.8946224 386.220234 78.2004297 385.984844 77.506237 385.48681 76.8917057 384.726133 76.3568359 383.965456 75.8219661 382.900508 75.2514583 381.531289 74.6453125L366.755586 67.8028125C362.482617 65.7699479 359.251836 63.5597917 357.063242 61.1723438 354.874648 58.7848958 353.473685 56.1476823 352.860352 53.2607031 352.247018 50.373724 352.140404 47.268125 352.540508 43.9439063 353.095143 39.5559375 354.149609 35.9358333 355.703906 33.0835938 357.258203 30.2313542 359.371927 28.0158073 362.045078 26.4369531 364.718229 24.858099 367.986445 23.7392448 371.849727 23.0803906 375.713008 22.4215365 380.171654 22.0921094 385.225664 22.0921094ZM463.520898 44.2799219C469.146315 44.2799219 473.285117 45.6871745 475.937305 48.5016797 478.589492 51.3161849 479.540638 55.3510677 478.790742 60.6063281L472.810742 103 451.918477 103 457.107852 66.40125C457.39056 64.5588542 457.309102 63.3480599 456.863477 62.7688672 456.417852 62.1896745 455.47569 61.9000781 454.036992 61.9000781 451.780117 61.9000781 449.505872 62.4613021 447.214258 63.58375 444.922643 64.7061979 442.051237 66.6348437 438.600039 69.3696875L435.513008 59.99C440.56582 54.5838021 445.467995 50.6139062 450.219531 48.0803125 454.971068 45.5467187 459.404857 44.2799219 463.520898 44.2799219ZM446.351758 22.5 443.78043 41.2144531C443.278503 45.111276 442.464518 48.8790234 441.338477 52.5176953 440.212435 56.1563672 439.194805 59.0352604 438.285586 61.154375L440.664648 62.3205469 435.056602 103 414.162539 103 425.459492 22.5 446.351758 22.5ZM522.247266 44.2799219C524.240599 44.2799219 526.54599 44.3820443 529.163438 44.5862891 531.780885 44.7905339 534.432474 45.0711458 537.118203 45.428125 539.803932 45.7851042 542.27763 46.1615495 544.539297 46.5574609 546.800964 46.9533724 548.563698 47.3429948 549.8275 47.7263281L534.340234 58.5345313C531.902474 58.4410938 529.623737 58.3811979 527.504023 58.3548438 525.38431 58.3284896 523.087005 58.3153125 520.612109 58.3153125 518.79487 58.3153125 517.193255 58.4755339 515.807266 58.7959766 514.421276 59.1164193 513.237135 59.753112 512.254844 60.7060547 511.272552 61.6589974 510.414844 63.0941016 509.681719 65.0113672 508.948594 66.9286328 508.355625 69.4846875 507.902813 72.6795313 507.313438 76.9716667 506.957656 80.2419792 506.835469 82.4904688 506.713281 84.7389583 507.003177 86.2561198 507.705156 87.0419531 508.407135 87.8277865 509.608047 88.1907552 511.307891 88.1308594 513.059245 88.0122656 514.925299 87.2698568 516.906055 85.9036328 518.88681 84.5374089 520.829831 82.7444271 522.735117 80.5246875 524.640404 78.3049479 526.334557 75.8731771 527.817578 73.229375L531.28375 79.2776563C529.960052 84.3879688 527.961927 88.7705469 525.289375 92.4253906 522.616823 96.0802344 519.402214 98.9124089 515.645547 100.921914 511.88888 102.931419 507.626693 104.084115 502.858984 104.38 497.582161 104.677083 493.594297 103.634297 490.895391 101.251641 488.196484 98.8689844 486.561328 95.280625 485.989922 90.4865625 485.418516 85.6925 485.639531 79.8736198 486.652969 73.0299219 487.691563 66.328776 489.200039 61.0465625 491.178398 57.1832813 493.156758 53.32 495.632552 50.4701563 498.605781 48.63375 501.57901 46.7973438 505.043685 45.6126042 508.999805 45.0795313 512.955924 44.5464583 517.371745 44.2799219 522.247266 44.2799219ZM529.353906 46.1253125 549.8275 47.7263281 542.034453 103 525.87875 103 525.884141 90.3086719 523.248125 88.6771094 529.353906 46.1253125ZM578.036641 45.8378125 578.717656 58.4015625 580.564844 59.860625 574.714219 103 553.732109 103 561.756953 45.8378125 578.036641 45.8378125ZM605.866641 44.2799219 601.494844 63.4417969 596.663047 63.4417969C594.298359 63.4417969 591.724935 63.7784115 588.942773 64.4516406 586.160612 65.1248698 582.569557 66.1796354 578.169609 67.6159375L577.353828 55.7763281C581.709453 51.8783073 585.971042 48.9877344 590.138594 47.1046094 594.306146 45.2214844 598.264661 44.2799219 602.014141 44.2799219L605.866641 44.2799219ZM652.267344 44.4578125C656.637344 44.4578125 660.142448 45.5958333 662.782656 47.871875 665.422865 50.1479167 667.187396 53.5853385 668.07625 58.1841406 668.965104 62.7829427 668.932161 68.657526 667.977422 75.8078906 667.176016 81.8573698 665.98319 86.7691276 664.398945 90.5431641 662.814701 94.3172005 660.881263 97.2113672 658.598633 99.2256641 656.316003 101.239961 653.705143 102.636732 650.766055 103.415977 647.826966 104.195221 644.588698 104.584844 641.05125 104.584844 639.21125 104.584844 637.080156 104.493203 634.657969 104.309922 632.235781 104.126641 629.750104 103.845729 627.200938 103.467187 624.651771 103.088646 622.259232 102.578633 620.02332 101.937148 617.787409 101.295664 615.927344 100.516719 614.443125 99.6003125L616.822187 91.3328906C619.869687 91.3676302 622.675508 91.3981771 625.239648 91.4245313 627.803789 91.4508854 630.73 91.4640625 634.018281 91.4640625 636.368594 91.4640625 638.266393 91.2592187 639.71168 90.8495312 641.156966 90.4398437 642.296784 89.6950391 643.131133 88.6151172 643.965482 87.5351953 644.641107 85.9919792 645.158008 83.9854687 645.674909 81.9789583 646.159766 79.3788802 646.612578 76.1852344 647.218724 71.993724 647.519401 68.7883984 647.514609 66.5692578 647.509818 64.3501172 647.160924 62.8182812 646.46793 61.97375 645.774935 61.1292187 644.667161 60.7069531 643.144609 60.7069531 641.762214 60.7069531 640.175872 61.1127474 638.385586 61.9243359 636.595299 62.7359245 634.801719 63.8320182 633.004844 65.2126172 631.207969 66.5932161 629.588984 68.1609896 628.147891 69.9159375L624.351094 61.758125C625.27349 60.3649479 626.632826 58.7007422 628.429102 56.7655078 630.225378 54.8302734 632.369948 52.9189974 634.862813 51.0316797 637.355677 49.144362 640.084232 47.576888 643.048477 46.3292578 646.012721 45.0816276 649.085677 44.4578125 652.267344 44.4578125ZM628.866641 45.8378125 628.683359 59.9109375 630.848594 61.5425 625.977266 99.9471094 624.764375 101.812266C624.806302 103.746901 624.774258 105.674349 624.668242 107.594609 624.562227 109.51487 624.317552 111.578281 623.934219 113.784844L622.245156 124.300156 601.325938 124.300156 612.267109 45.8378125 628.866641 45.8378125Z"/><path fill="url(#a)" d="M54.4512281,4.32806489 C55.7200552,4.32806489 56.7486428,5.3566525 56.7486428,6.62547962 C56.7486428,6.70777495 56.744221,6.79001083 56.7353965,6.87183166 L54.77,25.0880649 L82.345,25.0880649 L84.3634799,6.37912758 C84.4893116,5.21242031 85.474175,4.32806489 86.6476483,4.32806489 L103.039886,4.32806489 C104.308713,4.32806489 105.3373,5.3566525 105.3373,6.62547962 C105.3373,6.70651352 105.333013,6.78749067 105.324457,6.86807154 L103.389,25.0880649 L127.702959,25.088608 C128.971786,25.088608 130.000374,26.1171956 130.000374,27.3860228 C130.000374,27.5073828 129.990758,27.628552 129.971616,27.7483928 L128.372874,37.7574887 C127.660605,42.2167245 123.81401,45.4976673 119.298248,45.4976673 L101.222,45.4970649 L98.001,75.8300649 L120.338958,75.8303976 C121.607785,75.8303976 122.636373,76.8589852 122.636373,78.1278123 C122.636373,78.2560373 122.625638,78.3840372 122.604281,78.510471 L120.903261,88.5804327 C120.156295,93.0024378 116.326621,96.2394569 111.841971,96.2394569 L95.834,96.2390649 L93.8480635,114.945177 C93.7239998,116.113528 92.7384117,117 91.5634927,117 L74.9913204,117 C73.7224933,117 72.6939057,115.971412 72.6939057,114.702585 C72.6939057,114.62029 72.6983275,114.538054 72.707152,114.456233 L74.672,96.2390649 L47.097,96.2390649 L45.0790686,114.948937 C44.953237,116.115645 43.9683735,117 42.7949003,117 L26.4068947,117 C25.1380676,117 24.10948,115.971412 24.10948,114.702585 C24.10948,114.62029 24.1139018,114.538054 24.1227263,114.456233 L26.087,96.2390649 L2.29701873,96.2394569 C1.02819161,96.2394569 -0.000396000207,95.2108692 -0.000396000207,93.9420421 C-0.000396000207,93.8138172 0.0103388437,93.6858173 0.0316960666,93.5593834 L1.73271571,83.4894217 C2.47968157,79.0674166 6.30935617,75.8303976 10.7940064,75.8303976 L28.288,75.8300649 L31.56,45.4970649 L12.1223988,45.4976673 C10.8535717,45.4976673 9.82498405,44.4690797 9.82498405,43.2002526 C9.82498405,43.0720276 9.83571889,42.9440277 9.85707612,42.8175939 L11.5580958,32.7476322 C12.3050616,28.3256271 16.1347362,25.088608 20.6193864,25.088608 L33.761,25.0880649 L35.7790542,6.37912758 C35.9048859,5.21242031 36.8897493,4.32806489 38.0632226,4.32806489 L54.4512281,4.32806489 Z M59.4586084,35.3703327 L56.4806437,35.3703327 L55.8687206,42.1062174 L55.4333173,42.1062174 C52.0471853,42.1062174 49.0431045,44.8501944 48.7366995,48.2230187 L41.9741369,48.224131 L41.7046661,51.1903922 L48.4671277,51.1903922 L48.1078333,55.1454071 L41.3453718,55.1454071 L41.075901,58.1116682 L47.8383626,58.1116682 L47.4790683,62.0666831 L40.7166067,62.0666831 L40.447136,65.0329442 L47.2095975,65.0329442 L46.8503032,68.9879591 L40.0878417,68.9879591 L39.8183709,71.9542202 L46.5808325,71.9542202 C46.2743263,75.3281569 48.7798525,78.0721338 52.1659845,78.0721338 L52.6013878,78.0721338 L51.9894647,84.8080185 L54.9674294,84.8080185 L55.5793525,78.0721338 L59.5499722,78.0721338 L58.938049,84.8080185 L61.9160137,84.8080185 L62.5279369,78.0721338 L66.4985565,78.0721338 L65.8866334,84.8080185 L68.8645981,84.8080185 L69.4765212,78.0721338 L73.4471408,78.0721338 L72.8352177,84.8080185 L75.8131824,84.8080185 L76.4251056,78.0721338 L76.9225498,78.0721338 C80.3086818,78.0721338 83.3127625,75.3281569 83.6191676,71.9553326 L90.3817302,71.9542202 L90.651201,68.9879591 L83.8887394,68.9879591 L84.2480337,65.0329442 L91.0104953,65.0329442 L91.279966,62.0666831 L84.5175045,62.0666831 L84.8767988,58.1116682 L91.6392604,58.1116682 L91.9087311,55.1454071 L85.1462695,55.1454071 L85.5055639,51.1903922 L92.2680254,51.1903922 L92.5374962,48.224131 L85.7750346,48.224131 C86.0815407,44.8501944 83.5760145,42.1062174 80.1898825,42.1062174 L79.6924383,42.1062174 L80.3043615,35.3703327 L77.3263968,35.3703327 L76.7144736,42.1062174 L72.743854,42.1062174 L73.3557771,35.3703327 L70.3778124,35.3703327 L69.7658893,42.1062174 L65.7952696,42.1062174 L66.4071928,35.3703327 L63.4292281,35.3703327 L62.8173049,42.1062174 L58.8466853,42.1062174 L59.4586084,35.3703327 Z M79.8529821,45.8140439 C81.1866139,45.8140439 82.1733521,46.8946899 82.0526798,48.2230187 L79.8967117,71.9553326 C79.7760393,73.2836614 78.592958,74.3643074 77.2593882,74.3643074 L52.502823,74.3643074 C51.1692532,74.3643074 50.1825149,73.2836614 50.3031873,71.9553326 L52.4591554,48.2230187 C52.5798277,46.8946899 53.7629091,45.8140439 55.0964789,45.8140439 L79.8529821,45.8140439 Z M78.6618433,49.1668962 L55.6784982,49.1668962 L53.6940237,71.0114551 L76.6773689,71.0114551 L78.6618433,49.1668962 Z"/><path fill="#AEAAFF" fill-rule="nonzero" d="M22.0876429,9.50279257 C25.5669578,9.50274948 28.9132976,10.8082641 31.4349986,13.1494962 C31.6249859,13.3304638 31.9296096,13.3289183 32.1164687,13.1448957 L33.9316063,11.3552753 C34.0261049,11.2620234 34.0787193,11.1358757 34.0778465,11.0046776 C34.0769518,10.8734795 34.0226425,10.7480188 33.9268957,10.6559892 C27.308485,4.46098434 16.8667824,4.46098434 10.2483717,10.6559892 C10.1526249,10.7480188 10.0983156,10.8734795 10.0974209,11.0046776 C10.096548,11.1358757 10.1491624,11.2620234 10.2436611,11.3552753 L12.058817,13.1448957 C12.2472403,13.3289183 12.5502815,13.3304458 12.7402687,13.1494962 C15.2620596,10.8083874 18.6083499,9.50288823 22.0876429,9.5027746 L22.0876429,9.50279257 Z M22.0876429,15.3240366 C24.0001386,15.3240366 25.8435396,16.0171766 27.2598603,17.2716037 C27.4516859,17.4502601 27.7546167,17.4461699 27.941312,17.2624026 L29.7533214,15.4712368 C29.8490658,15.3775988 29.90232,15.2503463 29.9011596,15.1180188 C29.8999607,14.9856914 29.844446,14.8593638 29.7470468,14.7673681 C25.4314934,10.8469667 18.748503,10.8469667 14.4329496,14.7673681 C14.3355422,14.859362 14.2800205,14.9856921 14.2788181,15.118024 C14.2776543,15.2503559 14.3309088,15.3776137 14.4266566,15.4712547 L16.238666,17.2608751 C16.4257975,17.4442174 16.7287359,17.4476206 16.9201361,17.2685307 C18.3359044,16.0162029 20.1775048,15.3221273 22.0876429,15.3209636 L22.0876429,15.3240366 Z M25.5734724,19.5933622 C25.6703061,19.50028 25.7235178,19.372297 25.7205431,19.239633 C25.7175685,19.1069689 25.6586712,18.9813837 25.5577582,18.8925306 C23.5546081,17.2376714 20.6206592,17.2376714 18.6175091,18.8925306 C18.5168075,18.9816 18.4582008,19.1073049 18.4555258,19.2399668 C18.4528508,19.3726288 18.5063445,19.5004897 18.6033774,19.5933622 L21.740624,22.6849429 C21.8326087,22.7755041 21.957813,22.8264423 22.0884249,22.8264423 C22.2190368,22.8264423 22.3442411,22.7755041 22.4362258,22.6849429 L25.57189,19.5933622 L25.5734724,19.5933622 Z" transform="rotate(-45 22.088 14.418)"/></g></svg>