<?xml version="1.0" encoding="UTF-8"?>
<svg width="203px" height="41px" viewBox="0 0 203 41" version="1.1" xmlns="http://www.w3.org/2000/svg" xmlns:xlink="http://www.w3.org/1999/xlink">
    <title>logo-text</title>
    <g id="Page-1" stroke="none" stroke-width="1" fill="none" fill-rule="evenodd">
        <g id="login" transform="translate(-652.000000, -257.000000)" fill="#08093A" fill-rule="nonzero">
            <g id="logo" transform="translate(589.000000, 247.000000)">
                <g id="logo-text" transform="translate(63.138462, 10.231430)">
                    <path d="M13.0598955,1.2438986 L8.73552654,31.8811663 C8.69485585,32.1693097 8.44825801,32.3835452 8.15725842,32.3835452 L0.672218751,32.3835452 C0.349684457,32.3835452 0.0882187513,32.1220795 0.0882187513,31.7995452 C0.0882187513,31.7722377 0.0901340799,31.7449638 0.093950638,31.7179242 L4.41831962,1.08065658 C4.4589903,0.792513119 4.70558814,0.578277594 4.99658773,0.578277594 L12.4816274,0.578277594 C12.8041617,0.578277594 13.0656274,0.8397433 13.0656274,1.16227759 C13.0656274,1.18958515 13.0637121,1.21685907 13.0598955,1.2438986 Z" id="Path"></path>
                    <path d="M27.9904516,8.6741639 C30.9557738,8.6741639 33.3418222,9.08212393 35.1485965,9.89804397 C36.9553709,10.713964 38.1914452,12.0235479 38.8568192,13.8267958 C39.5221933,15.6300436 39.6384828,18.0444545 39.2056878,21.0700285 C38.8038067,23.932562 38.0990656,26.2129784 37.0914647,27.9112778 C36.0838637,29.6095772 34.6550605,30.8277198 32.8050549,31.5657055 C30.9550493,32.3036912 28.5473854,32.672684 25.5820631,32.672684 C22.6476547,32.672684 20.2693349,32.2705811 18.4471036,31.4663751 C16.6248722,30.6621691 15.3673031,29.3642992 14.6743963,27.5727654 C13.9814895,25.7812316 13.8480525,23.3999309 14.2740851,20.4288631 C14.6996347,17.5189953 15.4102928,15.2090547 16.4060595,13.4990412 C17.4018262,11.7890277 18.8384788,10.5573781 20.7160171,9.80409244 C22.5935554,9.05080675 25.0183669,8.6741639 27.9904516,8.6741639 Z M27.8469916,14.4640167 C26.8234506,14.4640167 26.0132883,14.637815 25.4165045,14.9854118 C24.8197207,15.3330086 24.3453851,15.9785966 23.9934976,16.922176 C23.6416101,17.8657554 23.3316255,19.2483729 23.0635437,21.0700285 C22.8500444,22.6368436 22.772035,23.8412401 22.8295156,24.683218 C22.8869962,25.5251958 23.1614781,26.1021729 23.6529613,26.4141494 C24.1444445,26.7261259 24.8831184,26.8821141 25.868983,26.8821141 C26.8756179,26.8821141 27.6653722,26.7048493 28.238246,26.3503197 C28.8111198,25.9957902 29.2674626,25.3510388 29.6072743,24.4160657 C29.9470861,23.4810926 30.2476516,22.152025 30.5089709,20.4288631 C30.7466218,18.800848 30.830669,17.561668 30.7611127,16.7113229 C30.6915563,15.8609779 30.4290294,15.2738406 29.973532,14.949911 C29.5180345,14.6259815 28.8091877,14.4640167 27.8469916,14.4640167 Z" id="Shape"></path>
                    <path d="M55.5878805,1.24429716 L51.2419717,31.8815648 C51.2011238,32.1695288 50.9546066,32.3835452 50.6637599,32.3835452 L43.1095138,32.3835452 C42.7869795,32.3835452 42.5255138,32.1220795 42.5255138,31.7995452 C42.5255138,31.7721034 42.5274481,31.7446956 42.5313021,31.7175257 L46.877211,1.08025803 C46.9180588,0.792294052 47.164576,0.578277594 47.4554227,0.578277594 L55.0096688,0.578277594 C55.3322031,0.578277594 55.5936688,0.8397433 55.5936688,1.16227759 C55.5936688,1.18971949 55.5917346,1.21712726 55.5878805,1.24429716 Z M37.5034534,7.22846992 C37.1809192,7.22846992 36.9194534,6.96700421 36.9194534,6.64446992 C36.9194534,6.61702879 36.9213876,6.58962177 36.9252414,6.56245261 L37.4892575,2.58620833 C37.6526447,1.43434838 38.6387154,0.578277594 39.8021056,0.578277594 L65.6822529,0.578277594 C66.0047872,0.578277594 66.2662529,0.8397433 66.2662529,1.16227759 C66.2662529,1.18940547 66.2643627,1.21650037 66.260596,1.24336547 L65.7034888,5.21682144 C65.5417551,6.37035503 64.5549329,7.22846992 63.3901164,7.22846992 L58.5090686,7.22846992 C56.3793002,7.22846992 54.5695692,8.75784453 54.1979346,10.8344555 L54.1649335,11.0412776 L54.6615385,7.22846992 L37.5034534,7.22846992 Z" id="Shape"></path>
                    <path d="M88.6642834,3.55271368e-15 C90.4029049,0.00670335294 92.2400371,0.118745109 94.1756799,0.336125269 C96.1113226,0.553505428 97.9450704,0.93751179 99.6769231,1.48814435 C100.831492,1.85523273 100.572584,3.71277971 98.9002002,7.06078529 C97.9438616,7.02295923 96.8671347,7.00057482 95.6700193,6.99363206 C94.4729039,6.9866893 93.235659,6.97555695 91.9582847,6.960235 C90.6809103,6.94491305 89.4083709,6.93725208 88.1406663,6.93725208 C87.4956938,6.93725208 86.9366612,6.960235 86.4635685,7.00620085 C85.9904759,7.0521667 85.5915986,7.14194375 85.2669366,7.27553199 C84.9422747,7.40912024 84.6840923,7.61572716 84.4923894,7.89535274 C84.3006866,8.17497832 84.1632552,8.54509916 84.0800953,9.00571527 C84.0283622,9.40743763 84.0481852,9.76068039 84.1395643,10.0654435 C84.2309435,10.3702067 84.454073,10.645523 84.808953,10.8913924 C85.1638329,11.1372618 85.6893839,11.4203588 86.3856061,11.7406833 L91.9691631,14.2163752 C93.6981149,14.9882184 95.0042568,15.8182371 95.8875887,16.7064314 C96.7709206,17.5946256 97.3405899,18.6216751 97.5965966,19.7875797 C97.8526033,20.9534843 97.8841509,22.317856 97.6912393,23.8806948 C97.4059816,26.2737918 96.8008969,28.1313388 95.875985,29.4533358 C94.9510732,30.7753328 93.5909016,31.6905798 91.7954702,32.199077 C90.0000389,32.7075742 87.6182579,32.9618228 84.6501273,32.9618228 C83.4036961,32.9618228 81.708105,32.8625893 79.5633538,32.6641221 C77.4186027,32.465655 75.1590232,32.0841624 72.7846154,31.5196443 C74.2069215,27.7660061 75.3146839,25.8275401 76.1079026,25.7042463 C77.2977307,25.5193055 77.0394275,25.5534208 78.4765945,25.5993867 C79.9137615,25.6453525 81.1233267,25.6743206 82.1052901,25.6862908 C83.0872535,25.6982611 83.8074083,25.7042463 84.2657546,25.7042463 C85.4072689,25.7042463 86.308369,25.6425993 86.9690549,25.5193055 C87.6297407,25.3960117 88.1248321,25.1775542 88.4543289,24.8639331 C88.7838257,24.5503119 88.9935385,24.1083694 89.0834672,23.5381056 C89.166627,23.0746167 89.1607043,22.7041367 89.065699,22.4266658 C88.9706937,22.1491948 88.7696837,21.9035648 88.462669,21.6897758 C88.1556544,21.4759867 87.7258339,21.247953 87.1732075,21.0056747 L81.2096292,18.2707067 C79.4850288,17.4581645 78.1810627,16.5747584 77.2977307,15.6204882 C76.4143988,14.666218 75.84896,13.6121158 75.6014144,12.4581814 C75.3538687,11.3042471 75.3108383,10.0629298 75.4723232,8.73422948 C75.6961779,6.98034506 76.1217679,5.53337845 76.7490931,4.39332964 C77.3764184,3.25328083 78.2295323,2.36772002 79.308435,1.73664722 C80.3873376,1.10557442 81.7064128,0.658365021 83.2656604,0.395019013 C84.824908,0.131673004 86.624449,3.55271368e-15 88.6642834,3.55271368e-15 Z" id="Path"></path>
                    <path d="M120.27667,8.68339957 C122.557812,8.68339957 124.236123,9.24445468 125.311602,10.3665649 C126.387081,11.4886752 126.772777,13.0973356 126.468689,15.1925464 L124.115649,31.5933443 C124.074394,31.8808943 123.828062,32.0944064 123.537568,32.0944064 L116.246077,32.0944064 C115.923543,32.0944064 115.662077,31.8329407 115.662077,31.5104064 C115.662077,31.4825127 115.664075,31.4546549 115.668057,31.4270468 L117.676138,17.5029138 L117.676138,17.5029138 C117.790778,16.7683722 117.757746,16.2856427 117.577042,16.0547254 C117.396339,15.823808 117.014286,15.7083493 116.430885,15.7083493 C115.515708,15.7083493 114.593487,15.9321027 113.664222,16.3796096 C112.734958,16.8271164 111.570584,17.5960449 110.171101,18.686395 L108.91929,14.9468236 C110.968238,12.7914358 112.956101,11.2086849 114.88288,10.1985708 C116.809658,9.18845663 118.607588,8.68339957 120.27667,8.68339957 Z M113.221565,0.664827209 L112.271783,7.46123311 L112.271783,7.46123311 C112.068248,9.01485073 111.738172,10.5170075 111.281555,11.9677033 C110.824938,13.4183991 110.412283,14.5661801 110.043589,15.4110462 L110.624326,15.6909265 C110.853091,15.8011771 110.984387,16.0466253 110.949125,16.2981107 L108.804731,31.5914999 C108.764295,31.8798808 108.51759,32.0944064 108.226388,32.0944064 L100.934815,32.0944064 C100.61228,32.0944064 100.350815,31.8329407 100.350815,31.5104064 C100.350815,31.4827956 100.352773,31.4552195 100.356674,31.4278857 L104.770947,0.501479277 C104.812017,0.213741148 105.058433,3.67832279e-15 105.349087,3.55271368e-15 L112.643185,3.55271368e-15 C112.96572,3.49346509e-15 113.227185,0.261465706 113.227185,0.584 C113.227185,0.611040029 113.225307,0.638047412 113.221565,0.664827209 Z" id="Shape"></path>
                    <path d="M144.029907,8.6741639 C144.838326,8.6741639 145.773303,8.71490883 146.834839,8.79639869 C147.896375,8.87788855 148.971757,8.98984749 150.060985,9.13227552 C151.150213,9.27470354 152.153449,9.42489819 153.070694,9.58285947 C153.987938,9.74082075 154.702835,9.89627281 155.215385,10.0492157 L148.934348,14.3614869 C147.945686,14.3242071 147.021519,14.3003098 146.161845,14.289795 C145.302171,14.2792802 144.370473,14.2740227 143.366751,14.2740227 C142.629749,14.2740227 141.980196,14.3379481 141.418092,14.4657987 C140.855988,14.5936494 140.375746,14.8476779 139.977367,15.2278842 C139.578987,15.6080906 139.231134,16.1806704 138.933807,16.9456236 C138.636479,17.7105767 138.395994,18.7303948 138.212351,20.0050779 C137.973323,21.7175598 137.829032,23.0223534 137.779477,23.9194588 C137.729923,24.8165641 137.847494,25.4218832 138.132189,25.7354161 C138.416885,26.0489489 138.903928,26.1937666 139.593319,26.1698693 C140.303601,26.1225526 141.0604,25.8263454 141.863718,25.2812475 C142.667036,24.7361497 143.45505,24.0207834 144.227761,23.1351487 C145.000471,22.2495141 145.687555,21.2792829 146.289011,20.2244553 L147.694756,22.6376066 C147.157915,24.6765258 146.347553,26.4250927 145.263669,27.8833071 C144.179785,29.3415215 142.876064,30.4715063 141.352505,31.2732613 C139.828946,32.0750164 138.100367,32.5349203 136.166769,32.6529731 C134.026694,32.7715038 132.40937,32.3554515 131.314798,31.4048161 C130.220225,30.4541807 129.557069,29.0224923 129.325329,27.1097509 C129.093589,25.1970095 129.183224,22.8753849 129.594235,20.1448772 C130.015449,17.4712451 130.627228,15.3637405 131.429575,13.8223634 C132.231921,12.2809863 133.236007,11.1439519 134.441834,10.41126 C135.647661,9.67856824 137.052799,9.20587926 138.657249,8.99319312 C140.261698,8.78050698 142.052584,8.6741639 144.029907,8.6741639 Z M146.912086,9.41044031 L155.215385,10.0492157 L152.126648,31.6012285 C152.085432,31.8888183 151.839083,32.1023788 151.548555,32.1023788 L146.086697,32.1023788 C145.764162,32.1026309 145.502697,31.8411652 145.502697,31.5186309 C145.502697,31.5185469 145.502697,31.5184628 145.502949,31.5183789 L145.504883,27.0387759 L145.504883,27.0387759 L144.435817,26.3878129 L146.912086,9.41044031 Z" id="Shape"></path>
                    <path d="M166.22638,9.84752973 L166.471014,14.3065176 L166.471014,14.3065176 L167.216704,14.8884582 L164.924132,31.5898265 C164.884443,31.8789593 164.637402,32.0944064 164.345557,32.0944064 L157.057463,32.0944064 C156.734929,32.0944064 156.473463,31.8329407 156.473463,31.5104064 C156.473463,31.4829184 156.475404,31.4554646 156.479271,31.4282498 L159.552851,9.79736505 C159.59376,9.50946282 159.840249,9.29552167 160.131043,9.29552167 L165.643257,9.29552167 C165.953361,9.29552167 166.209392,9.5378912 166.22638,9.84752973 Z M177.265568,9.38956415 L175.770437,15.8641929 C175.709256,16.1291323 175.473323,16.3167927 175.201411,16.3167927 L173.715377,16.3167927 L173.715377,16.3167927 C172.760778,16.3167927 171.721914,16.4510499 170.598785,16.7195644 C169.475656,16.9880789 168.025985,17.4087675 166.249773,17.9816302 L165.920451,13.2594545 C167.67877,11.7047462 169.399128,10.551854 171.081525,9.80077798 C172.763921,9.04970193 174.361931,8.6741639 175.875556,8.6741639 L176.696542,8.6741639 C177.019077,8.6741639 177.280542,8.93562961 177.280542,9.2581639 C177.280542,9.3023897 177.275519,9.34647237 177.265568,9.38956415 Z" id="Shape"></path>
                    <path d="M196.225346,8.9633027 C197.988089,8.9633027 199.401956,9.4166343 200.466947,10.3232975 C201.531937,11.2299607 202.243703,12.5992607 202.602243,14.4311975 C202.960784,16.2631344 202.947495,18.6032798 202.562379,21.4516338 C202.239112,23.8614491 201.757958,25.8180522 201.118915,27.3214429 C200.479873,28.8248336 199.699975,29.9777275 198.779222,30.7801244 C197.858469,31.5825213 196.805317,32.1389262 195.619766,32.4493391 C194.434215,32.7597519 193.127983,32.9149583 191.701069,32.9149583 C190.958862,32.9149583 190.099234,32.8784532 189.122188,32.805443 C188.145141,32.7324327 187.142484,32.6205314 186.114217,32.469739 C185.085951,32.3189466 184.120863,32.1157824 183.218955,31.8602466 C182.317048,31.6047107 181.566746,31.2944172 180.968051,30.9293659 L181.927703,27.6360312 C183.156984,27.6498697 184.288778,27.6620381 185.323085,27.6725363 C186.357392,27.6830345 187.537748,27.6882836 188.864155,27.6882836 C189.812209,27.6882836 190.577731,27.6066839 191.160722,27.4434845 C191.743712,27.2802852 192.203485,26.9835916 192.540039,26.5534037 C192.876594,26.1232159 193.149123,25.5084744 193.357627,24.7091792 C193.566131,23.909884 193.76171,22.8741406 193.944363,21.601949 C194.188866,19.9322572 194.310151,18.6554129 194.308218,17.7714163 C194.306285,16.8874197 194.165551,16.2772115 193.886015,15.9407918 C193.606479,15.604372 193.159633,15.4361621 192.545475,15.4361621 C191.987853,15.4361621 191.347965,15.5978106 190.62581,15.9211076 C189.903656,16.2444046 189.180173,16.6810345 188.45536,17.2309974 C187.730548,17.7809602 187.077493,18.4054841 186.496193,19.1045691 L184.964665,15.8548974 C185.336736,15.299924 185.885056,14.6369862 186.609626,13.8660839 C187.334197,13.0951816 188.19926,12.3338231 189.204816,11.5820085 C190.210372,10.8301938 191.310999,10.2057892 192.506698,9.70879458 C193.702396,9.2118 194.941946,8.9633027 196.225346,8.9633027 Z M186.778315,10.1047279 L186.712187,15.1190686 L186.712187,15.1190686 L187.585586,15.7690029 L185.62062,31.0675128 L185.131372,31.8104994 C185.148284,32.5811631 185.135359,33.3489637 185.092595,34.1139011 C185.049831,34.8788385 184.951136,35.7008003 184.796509,36.5797864 L184.194926,40.2783283 C184.148954,40.560959 183.904846,40.7685704 183.618501,40.7685704 L176.349179,40.7685704 C176.026645,40.7685704 175.765179,40.5071046 175.765179,40.1845704 C175.765179,40.1572521 175.767096,40.1299676 175.770915,40.1029177 L180.019371,10.0153743 C180.060056,9.72724505 180.306647,9.51302691 180.597635,9.51302691 L186.194366,9.51302691 C186.5169,9.51302691 186.778366,9.77449262 186.778366,10.0970269 C186.778366,10.099594 186.778349,10.102161 186.778315,10.1047279 Z" id="Shape"></path>
                </g>
            </g>
        </g>
    </g>
</svg>