<svg xmlns="http://www.w3.org/2000/svg" xmlns:xlink="http://www.w3.org/1999/xlink" width="657" height="121" viewBox="0 0 657 121"><defs><linearGradient id="c" x1="43.372%" x2="56.949%" y1="132.219%" y2="-22.218%"><stop offset=".025%" stop-color="#FFF"/><stop offset="100%" stop-color="#C3B3FF"/></linearGradient><linearGradient id="f" x1="-25.695%" x2="129.36%" y1="52.327%" y2="47.956%"><stop offset=".025%" stop-color="#FFF"/><stop offset="100%" stop-color="#C3B3FF"/></linearGradient><linearGradient id="i" x1="-25.695%" x2="129.36%" y1="122.552%" y2="-13.727%"><stop offset="0%" stop-color="#FFF"/><stop offset="99.975%" stop-color="#FFF"/></linearGradient><filter id="b" width="137.5%" height="111.1%" x="-18.8%" y="-4%" filterUnits="objectBoundingBox"><feOffset dy="1" in="SourceAlpha" result="shadowOffsetOuter1"/><feGaussianBlur in="shadowOffsetOuter1" result="shadowBlurOuter1" stdDeviation="1"/><feColorMatrix in="shadowBlurOuter1" values="0 0 0 0 0.255230322 0 0 0 0 0.212056896 0 0 0 0 0.413892663 0 0 0 0.0374781469 0"/></filter><filter id="e" width="110.2%" height="160.4%" x="-5.1%" y="-21.6%" filterUnits="objectBoundingBox"><feOffset dy="1" in="SourceAlpha" result="shadowOffsetOuter1"/><feGaussianBlur in="shadowOffsetOuter1" result="shadowBlurOuter1" stdDeviation="1"/><feComposite in="shadowBlurOuter1" in2="SourceAlpha" operator="out" result="shadowBlurOuter1"/><feColorMatrix in="shadowBlurOuter1" values="0 0 0 0 0.255230322 0 0 0 0 0.212056896 0 0 0 0 0.413892663 0 0 0 0.0374781469 0"/></filter><filter id="h" width="110.4%" height="111.1%" x="-5.2%" y="-4%" filterUnits="objectBoundingBox"><feOffset dy="1" in="SourceAlpha" result="shadowOffsetOuter1"/><feGaussianBlur in="shadowOffsetOuter1" result="shadowBlurOuter1" stdDeviation="1"/><feColorMatrix in="shadowBlurOuter1" values="0 0 0 0 0.255230322 0 0 0 0 0.212056896 0 0 0 0 0.413892663 0 0 0 0.0374781469 0"/></filter><path id="a" d="M60.0115626,86.1616263 L66.5820179,25.5700554 C66.6505139,24.9383969 67.1838481,24.4597701 67.8192096,24.4597701 L77.1443563,24.4597701 C77.831644,24.4597701 78.3888007,25.0169269 78.3888007,25.7042146 C78.3888007,25.7483453 78.3864533,25.7924449 78.3817683,25.8363262 L71.9127389,86.4278971 C71.8452046,87.0604509 71.3114756,87.5402299 70.6753269,87.5402299 L61.2487543,87.5402299 C60.5614666,87.5402299 60.0043098,86.9830731 60.0043098,86.2957854 C60.0043098,86.2509678 60.0067309,86.2061828 60.0115626,86.1616263 Z"/><path id="d" d="M19.5507,74.5058269 L20.5424025,68.5305874 C20.941019,66.1288304 23.0183958,64.3678161 25.453007,64.3678161 L86.7159018,64.3678161 C87.4031895,64.3678161 87.9603462,64.9249728 87.9603462,65.6122605 C87.9603462,65.6805234 87.9547295,65.7486705 87.9435529,65.8160122 L86.9518503,71.7912517 C86.5532339,74.1930087 84.4758571,75.954023 82.0412459,75.954023 L20.7783511,75.954023 C20.0910634,75.954023 19.5339067,75.3968662 19.5339067,74.7095785 C19.5339067,74.6413157 19.5395234,74.5731686 19.5507,74.5058269 Z"/><path id="g" d="M50.7512457,24.4597701 C51.4385334,24.4597701 51.9956902,25.0169269 51.9956902,25.7042146 C51.9956902,25.7490322 51.9932691,25.7938172 51.9884374,25.8383737 L50.8813636,36.0457701 L91.2343465,36.045977 C91.9216342,36.045977 92.4787909,36.6031338 92.4787909,37.2904215 C92.4787909,37.3551212 92.4737453,37.4197223 92.4636998,37.4836374 L91.5295462,43.4272701 C91.149033,45.8483185 89.0629014,47.6321839 86.612133,47.6321839 L54.0454549,47.6321839 C51.7352323,47.6321839 49.763166,49.2139403 49.2170012,51.3979937 L45.4179821,86.4299446 C45.3494861,87.0616031 44.8161519,87.5402299 44.1807904,87.5402299 L34.8579497,87.5402299 C34.170662,87.5402299 33.6135052,86.9830731 33.6135052,86.2957854 C33.6135052,86.2509678 33.6159264,86.2061828 33.620758,86.1616263 L37.7983636,47.6317701 L26.571808,47.6321839 C25.8845203,47.6321839 25.3273636,47.0750272 25.3273636,46.3877395 C25.3273636,46.3193779 25.3329966,46.2511326 25.3442054,46.1836963 L26.3375116,40.207582 C26.7366251,37.8063608 28.8137582,36.045977 31.2479223,36.045977 L39.0543636,36.0457701 L40.1912133,25.5700554 C40.2597093,24.9383969 40.7930435,24.4597701 41.428405,24.4597701 L50.7512457,24.4597701 Z"/></defs><g fill="none" fill-rule="evenodd"><g fill="#FFF" fill-rule="nonzero" transform="translate(149.24 18.092)"><polygon points="32.685 1.558 21.53 80.908 0 80.908 11.155 1.558"/><path d="M70.2838672 22.1878125C77.6378776 22.1878125 83.5552865 23.2099349 88.0360937 25.2541797 92.516901 27.2984245 95.5823698 30.5795182 97.2325 35.0974609 98.8826302 39.6154036 99.1710286 45.6645833 98.0976953 53.245 97.1010286 60.4169271 95.3532682 66.1303906 92.8544141 70.3853906 90.3555599 74.6403906 86.8121224 77.6923828 82.2241016 79.5413672 77.6360807 81.3903516 71.6650651 82.3148438 64.3110547 82.3148438 57.0337109 82.3148438 51.1354687 81.3073958 46.6163281 79.2925 42.0971875 77.2776042 38.9784115 74.0258594 37.26 69.5372656 35.5415885 65.0486719 35.2106641 59.0824479 36.2672266 51.6385938 37.3225911 44.3480729 39.085026 38.560638 41.5545312 34.2762891 44.0240365 29.9919401 47.5869401 26.9061068 52.2432422 25.0187891 56.8995443 23.1314714 62.9130859 22.1878125 70.2838672 22.1878125ZM69.9280859 36.6939844C67.3897005 36.6939844 65.3804948 37.1294271 63.9004687 38.0003125 62.4204427 38.8711979 61.2440885 40.4886849 60.3714062 42.8527734 59.498724 45.216862 58.7299609 48.6809375 58.0651172 53.245 57.535638 57.1705729 57.3421745 60.188125 57.4847266 62.2976563 57.6272786 64.4071875 58.3079948 65.8527734 59.526875 66.6344141 60.7457552 67.4160547 62.5776693 67.806875 65.0226172 67.806875 67.5190755 67.806875 69.4776693 67.3627474 70.8983984 66.4744922 72.3191276 65.586237 73.4508594 63.9708464 74.2935937 61.6283203 75.1363281 59.2857943 75.8817318 55.9558854 76.5298047 51.6385938 77.1191797 47.5596875 77.3276172 44.454987 77.1551172 42.3244922 76.9826172 40.1939974 76.3315495 38.7229557 75.2019141 37.9113672 74.0722786 37.0997786 72.3143359 36.6939844 69.9280859 36.6939844ZM143.728437 1.55789063 132.573437 80.9078906 110.978594 80.9078906 122.133594 1.55789063 143.728437 1.55789063ZM166.500234 1.55789063 164.194844 17.9992969 97.1175 17.9992969 99.4498437 1.55789063 166.500234 1.55789063ZM223.984961 0C228.292669.0167708333 232.844453.297083333 237.640312.8409375 242.436172 1.38479167 246.97957 2.34552083 251.270508 3.723125L249.346055 17.6650781C246.976576 17.5704427 244.308815 17.5144401 241.342773 17.4970703 238.376732 17.4797005 235.311263 17.451849 232.146367 17.4135156 228.981471 17.3751823 225.828555 17.3560156 222.687617 17.3560156 221.089596 17.3560156 219.704505 17.4135156 218.532344 17.5285156 217.360182 17.6435156 216.371901 17.868125 215.5675 18.2023438 214.763099 18.5365625 214.123411 19.0534635 213.648437 19.7530469 213.173464 20.4526302 212.832956 21.3786198 212.626914 22.5310156 212.498737 23.5360677 212.547852 24.4198307 212.774258 25.1823047 213.000664 25.9447786 213.553503 26.6335807 214.432773 27.2487109 215.312044 27.8638411 216.61418 28.5721094 218.33918 29.3735156L232.17332 35.5673438C236.45707 37.4983854 239.693242 39.574974 241.881836 41.7971094 244.07043 44.0192448 245.481875 46.588776 246.116172 49.5057031 246.750469 52.4226302 246.828633 55.8360938 246.350664 59.7460938 245.643893 65.7332813 244.144701 70.380599 241.853086 73.6880469 239.561471 76.9954948 236.191432 79.2853125 231.742969 80.5575 227.294505 81.8296875 221.393268 82.4657813 214.039258 82.4657813 210.951029 82.4657813 206.749935 82.217513 201.435977 81.7209766 196.122018 81.2244401 190.523555 80.27 184.640586 78.8576563L186.706992 63.7333594C191.17043 63.8267969 195.182552 63.9310156 198.743359 64.0460156 202.304167 64.1610156 205.301055 64.2334896 207.734023 64.2634375 210.166992 64.2933854 211.951289 64.3083594 213.086914 64.3083594 215.915195 64.3083594 218.147812 64.1541276 219.784766 63.8456641 221.421719 63.5372005 222.648385 62.990651 223.464766 62.2060156 224.281146 61.4213802 224.800742 60.3157031 225.023555 58.8889844 225.229596 57.729401 225.214922 56.802513 224.979531 56.1083203 224.744141 55.4141276 224.246107 54.7995964 223.48543 54.2647266 222.724753 53.7298568 221.659805 53.159349 220.290586 52.5532031L205.514883 45.7107031C201.241914 43.6778385 198.011133 41.4676823 195.822539 39.0802344 193.633945 36.6927865 192.232982 34.0555729 191.619648 31.1685937 191.006315 28.2816146 190.899701 25.1760156 191.299805 21.8517969 191.85444 17.4638281 192.908906 13.843724 194.463203 10.9914844 196.0175 8.13924479 198.131224 5.92369792 200.804375 4.34484375 203.477526 2.76598958 206.745742 1.64713542 210.609023.98828125 214.472305.329427083 218.930951 0 223.984961 0ZM302.280195 22.1878125C307.905612 22.1878125 312.044414 23.5950651 314.696602 26.4095703 317.348789 29.2240755 318.299935 33.2589583 317.550039 38.5142188L311.570039 80.9078906 290.677773 80.9078906 295.867148 44.3091406C296.149857 42.4667448 296.068398 41.2559505 295.622773 40.6767578 295.177148 40.0975651 294.234987 39.8079688 292.796289 39.8079688 290.539414 39.8079688 288.265169 40.3691927 285.973555 41.4916406 283.68194 42.6140885 280.810534 44.5427344 277.359336 47.2775781L274.272305 37.8978906C279.325117 32.4916927 284.227292 28.5217969 288.978828 25.9882031 293.730365 23.4546094 298.164154 22.1878125 302.280195 22.1878125ZM285.111055.407890625 282.539727 19.1223438C282.037799 23.0191667 281.223815 26.7869141 280.097773 30.4255859 278.971732 34.0642578 277.954102 36.943151 277.044883 39.0622656L279.423945 40.2284375 273.815898 80.9078906 252.921836 80.9078906 264.218789.407890625 285.111055.407890625ZM361.006563 22.1878125C362.999896 22.1878125 365.305286 22.2899349 367.922734 22.4941797 370.540182 22.6984245 373.191771 22.9790365 375.8775 23.3360156 378.563229 23.6929948 381.036927 24.0694401 383.298594 24.4653516 385.56026 24.861263 387.322995 25.2508854 388.586797 25.6342188L373.099531 36.4424219C370.661771 36.3489844 368.383034 36.2890885 366.26332 36.2627344 364.143607 36.2363802 361.846302 36.2232031 359.371406 36.2232031 357.554167 36.2232031 355.952552 36.3834245 354.566563 36.7038672 353.180573 37.0243099 351.996432 37.6610026 351.014141 38.6139453 350.031849 39.566888 349.174141 41.0019922 348.441016 42.9192578 347.707891 44.8365234 347.114922 47.3925781 346.662109 50.5874219 346.072734 54.8795573 345.716953 58.1498698 345.594766 60.3983594 345.472578 62.646849 345.762474 64.1640104 346.464453 64.9498438 347.166432 65.7356771 348.367344 66.0986458 350.067188 66.03875 351.818542 65.9201563 353.684596 65.1777474 355.665352 63.8115234 357.646107 62.4452995 359.589128 60.6523177 361.494414 58.4325781 363.399701 56.2128385 365.093854 53.7810677 366.576875 51.1372656L370.043047 57.1855469C368.719349 62.2958594 366.721224 66.6784375 364.048672 70.3332813 361.37612 73.988125 358.16151 76.8202995 354.404844 78.8298047 350.648177 80.8393099 346.38599 81.9920052 341.618281 82.2878906 336.341458 82.584974 332.353594 81.5421875 329.654688 79.1595313 326.955781 76.776875 325.320625 73.1885156 324.749219 68.3944531 324.177813 63.6003906 324.398828 57.7815104 325.412266 50.9378125 326.450859 44.2366667 327.959336 38.9544531 329.937695 35.0911719 331.916055 31.2278906 334.391849 28.3780469 337.365078 26.5416406 340.338307 24.7052344 343.802982 23.5204948 347.759102 22.9874219 351.715221 22.454349 356.131042 22.1878125 361.006563 22.1878125ZM368.113203 24.0332031 388.586797 25.6342188 380.79375 80.9078906 364.638047 80.9078906 364.643438 68.2165625 362.007422 66.585 368.113203 24.0332031ZM416.795937 23.7457031 417.476953 36.3094531 419.324141 37.7685156 413.473516 80.9078906 392.491406 80.9078906 400.51625 23.7457031 416.795937 23.7457031ZM444.625937 22.1878125 440.254141 41.3496875 435.422344 41.3496875C433.057656 41.3496875 430.484232 41.6863021 427.70207 42.3595313 424.919909 43.0327604 421.328854 44.087526 416.928906 45.5238281L416.113125 33.6842188C420.46875 29.7861979 424.730339 26.895625 428.897891 25.0125 433.065443 23.129375 437.023958 22.1878125 440.773437 22.1878125L444.625937 22.1878125ZM491.026641 22.3657031C495.396641 22.3657031 498.901745 23.503724 501.541953 25.7797656 504.182161 28.0558073 505.946693 31.4932292 506.835547 36.0920313 507.724401 40.6908333 507.691458 46.5654167 506.736719 53.7157813 505.935312 59.7652604 504.742487 64.6770182 503.158242 68.4510547 501.573997 72.2250911 499.64056 75.1192578 497.35793 77.1335547 495.075299 79.1478516 492.46444 80.5446224 489.525352 81.3238672 486.586263 82.103112 483.347995 82.4927344 479.810547 82.4927344 477.970547 82.4927344 475.839453 82.4010938 473.417266 82.2178125 470.995078 82.0345313 468.509401 81.7536198 465.960234 81.3750781 463.411068 80.9965365 461.018529 80.4865234 458.782617 79.8450391 456.546706 79.2035547 454.686641 78.4246094 453.202422 77.5082031L455.581484 69.2407813C458.628984 69.2755208 461.434805 69.3060677 463.998945 69.3324219 466.563086 69.358776 469.489297 69.3719531 472.777578 69.3719531 475.127891 69.3719531 477.02569 69.1671094 478.470977 68.7574219 479.916263 68.3477344 481.056081 67.6029297 481.89043 66.5230078 482.724779 65.4430859 483.400404 63.8998698 483.917305 61.8933594 484.434206 59.886849 484.919062 57.2867708 485.371875 54.093125 485.978021 49.9016146 486.278698 46.6962891 486.273906 44.4771484 486.269115 42.2580078 485.920221 40.7261719 485.227227 39.8816406 484.534232 39.0371094 483.426458 38.6148438 481.903906 38.6148438 480.52151 38.6148438 478.935169 39.020638 477.144883 39.8322266 475.354596 40.6438151 473.561016 41.7399089 471.764141 43.1205078 469.967266 44.5011068 468.348281 46.0688802 466.907187 47.8238281L463.110391 39.6660156C464.032786 38.2728385 465.392122 36.6086328 467.188398 34.6733984 468.984674 32.7381641 471.129245 30.826888 473.622109 28.9395703 476.114974 27.0522526 478.843529 25.4847786 481.807773 24.2371484 484.772018 22.9895182 487.844974 22.3657031 491.026641 22.3657031ZM467.625937 23.7457031 467.442656 37.8188281 469.607891 39.4503906 464.736562 77.855 463.523672 79.7201563C463.565599 81.6547917 463.533555 83.5822396 463.427539 85.5025 463.321523 87.4227604 463.076849 89.4861719 462.693516 91.6927344L461.004453 102.208047 440.085234 102.208047 451.026406 23.7457031 467.625937 23.7457031Z"/></g><path fill="#4E26E1" d="M28.7155142,6.53527134e-16 L83.2844858,1.16014114e-15 C93.2694956,-6.74075415e-16 96.8903015,1.03964684 100.540672,2.99188628 C104.191042,4.94412572 107.055874,7.80895775 109.008114,11.4593281 C110.960353,15.1096985 112,18.7305044 112,28.7155142 L112,83.2844858 C112,93.2694956 110.960353,96.8903015 109.008114,100.540672 C107.055874,104.191042 104.191042,107.055874 100.540672,109.008114 C96.8903015,110.960353 93.2694956,112 83.2844858,112 L28.7155142,112 C18.7305044,112 15.1096985,110.960353 11.4593281,109.008114 C7.80895775,107.055874 4.94412572,104.191042 2.99188628,100.540672 C1.03964684,96.8903015 -6.0440989e-16,93.2694956 1.04024085e-15,83.2844858 L7.7342743e-16,28.7155142 C-4.4938361e-16,18.7305044 1.03964684,15.1096985 2.99188628,11.4593281 C4.94412572,7.80895775 7.80895775,4.94412572 11.4593281,2.99188628 C15.1096985,1.03964684 18.7305044,-3.79718085e-16 28.7155142,6.53527134e-16 Z"/><use xlink:href="#a" fill="#000" filter="url(#b)"/><use xlink:href="#a" fill="url(#c)"/><use xlink:href="#d" fill="#000" filter="url(#e)"/><use xlink:href="#d" fill="url(#f)" fill-opacity=".6"/><use xlink:href="#g" fill="#000" filter="url(#h)"/><use xlink:href="#g" fill="url(#i)"/></g></svg>