<svg xmlns="http://www.w3.org/2000/svg" width="512" height="512" viewBox="0 0 512 512"><defs><linearGradient id="a" x1="121.167%" x2="50%" y1="80.123%" y2="50%"><stop offset=".025%" stop-color="#0035C2"/><stop offset="100%" stop-color="#5F56FF"/></linearGradient></defs><g fill="none" fill-rule="evenodd"><rect width="512" height="512" fill="#FFF"/><path fill="url(#a)" d="M230.416388,122 C233.437405,122 235.886423,124.449018 235.886423,127.470035 C235.886423,127.665841 235.875909,127.861506 235.854927,128.056185 L231.185,171.38 L296.729,171.38 L301.525166,126.883885 C301.824576,124.105835 304.169567,122 306.963706,122 L345.908551,122 C348.929568,122 351.378586,124.449018 351.378586,127.470035 C351.378586,127.66284 351.368392,127.85551 351.348047,128.047239 L346.75,171.38 L404.530808,171.380758 C407.551825,171.380758 410.000843,173.829776 410.000843,176.850793 C410.000843,177.139548 409.977979,177.42785 409.932464,177.712995 L406.136562,201.494149 C404.44169,212.112445 395.282648,219.925481 384.529937,219.925481 L341.598,219.925 L333.942,292.074 L387.026993,292.074519 C390.04801,292.074519 392.497028,294.523537 392.497028,297.544554 C392.497028,297.849643 392.471504,298.154198 392.420722,298.455031 L388.381946,322.381011 C386.604499,332.910727 377.48571,340.619242 366.807029,340.619242 L328.791,340.619 L324.070543,385.107168 C323.77534,387.889128 321.428626,390 318.631047,390 L279.258526,390 C276.237509,390 273.788491,387.550982 273.788491,384.529965 C273.788491,384.334159 273.799004,384.138494 273.819986,383.943815 L278.488,340.619 L212.945,340.619 L208.149747,385.116115 C207.850337,387.894165 205.505346,390 202.711208,390 L163.776431,390 C160.755414,390 158.306396,387.550982 158.306396,384.529965 C158.306396,384.334159 158.316909,384.138494 158.337891,383.943815 L163.006,340.619 L106.469132,340.619242 C103.448115,340.619242 100.999097,338.170224 100.999097,335.149207 C100.999097,334.844118 101.024621,334.539563 101.075403,334.238729 L105.114179,310.312749 C106.891626,299.783034 116.010415,292.074519 126.689096,292.074519 L168.239,292.074 L176.015,219.925 L129.823437,219.925481 C126.80242,219.925481 124.353402,217.476463 124.353402,214.455446 C124.353402,214.150357 124.378926,213.845802 124.429708,213.544969 L128.468484,189.618989 C130.245931,179.089273 139.364719,171.380758 150.0434,171.380758 L181.247,171.38 L186.043071,126.883885 C186.342481,124.105835 188.687472,122 191.48161,122 L230.416388,122 Z M242.328434,195.836735 L235.250001,195.836735 L233.795499,211.858622 L232.760573,211.858622 C224.711952,211.858622 217.571443,218.38541 216.843137,226.407966 L200.768955,226.410612 L200.128441,233.466122 L216.202382,233.466122 L215.348362,242.873469 L199.274421,242.873469 L198.633906,249.92898 L214.707848,249.92898 L213.853828,259.336327 L197.779886,259.336327 L197.139371,266.391837 L213.213313,266.391837 L212.359293,275.799184 L196.285351,275.799184 L195.644837,282.854694 L211.718778,282.854694 C210.990233,290.879896 216.945709,297.406684 224.99433,297.406684 L226.029256,297.406684 L224.574754,313.428571 L231.653187,313.428571 L233.107689,297.406684 L242.5456,297.406684 L241.091097,313.428571 L248.169531,313.428571 L249.624033,297.406684 L259.061944,297.406684 L257.607441,313.428571 L264.685874,313.428571 L266.140377,297.406684 L275.578288,297.406684 L274.123785,313.428571 L281.202218,313.428571 L282.656721,297.406684 L283.839114,297.406684 C291.887735,297.406684 299.028244,290.879896 299.756549,282.85734 L315.830731,282.854694 L316.471246,275.799184 L300.397304,275.799184 L301.251324,266.391837 L317.325266,266.391837 L317.965781,259.336327 L301.891839,259.336327 L302.745859,249.92898 L318.819801,249.92898 L319.460315,242.873469 L303.386374,242.873469 L304.240394,233.466122 L320.314335,233.466122 L320.95485,226.410612 L304.880908,226.410612 C305.609454,218.38541 299.653977,211.858622 291.605356,211.858622 L290.422963,211.858622 L291.877466,195.836735 L284.799033,195.836735 L283.34453,211.858622 L273.906619,211.858622 L275.361122,195.836735 L268.282689,195.836735 L266.828186,211.858622 L257.390276,211.858622 L258.844778,195.836735 L251.766345,195.836735 L250.311843,211.858622 L240.873932,211.858622 L242.328434,195.836735 Z M290.804565,220.67801 C290.938799,220.67801 291.071555,220.682619 291.202694,220.691687 L291.203,222.653 L291.412019,220.710074 C294.268429,221.0148 296.301286,223.453881 296.033107,226.407966 L290.908508,282.85734 C290.621677,286.016885 287.809568,288.587296 284.639757,288.587296 L225.794974,288.587296 C222.625163,288.587296 220.279749,286.016885 220.566579,282.85734 L225.691179,226.407966 C225.978009,223.248421 228.790118,220.67801 231.959929,220.67801 L290.804565,220.67801 Z M287.973304,228.653061 L233.343352,228.653061 L228.626382,280.612245 L283.256335,280.612245 L287.973304,228.653061 Z"/><path fill="#AEAAFF" fill-rule="nonzero" d="M153.500025,134.30854 C161.770132,134.308437 169.72417,137.413718 175.718093,142.982542 C176.169681,143.412989 176.893752,143.409313 177.337904,142.971599 L181.652371,138.714831 C181.876988,138.493024 182.002049,138.19297 181.999975,137.880904 C181.997848,137.568838 181.868758,137.270419 181.641174,137.051519 C165.909632,122.31616 141.090368,122.31616 125.358826,137.051519 C125.131242,137.270419 125.002152,137.568838 125.000025,137.880904 C124.997951,138.19297 125.123012,138.493024 125.347629,138.714831 L129.66214,142.971599 C130.11001,143.409313 130.830319,143.412946 131.281907,142.982542 C137.276044,137.414011 145.229963,134.308768 153.500025,134.308497 L153.500025,134.30854 Z M153.500022,148.154875 C158.045903,148.154875 162.42755,149.803569 165.794054,152.787333 C166.250012,153.212283 166.970059,153.202554 167.413822,152.765447 L171.720853,148.505004 C171.948431,148.282278 172.075013,147.979597 172.072255,147.664844 C172.069405,147.350092 171.93745,147.049611 171.705939,146.830791 C161.448142,137.505775 145.563098,137.505775 135.305302,146.830791 C135.073771,147.049606 134.941799,147.350094 134.938941,147.664856 C134.936175,147.979619 135.062757,148.282313 135.290344,148.505046 L139.597375,152.761814 C140.042175,153.19791 140.76224,153.206005 141.217186,152.780024 C144.582378,149.801253 148.959745,148.150334 153.500022,148.147566 L153.500022,148.154875 Z M161.785617,158.309838 C162.015785,158.088434 162.142266,157.784015 162.135195,157.468462 C162.128125,157.152909 161.98813,156.854194 161.748266,156.642849 C156.986905,152.706622 150.013095,152.706622 145.251734,156.642849 C145.012373,156.854708 144.873069,157.153708 144.86671,157.469256 C144.860352,157.784804 144.987503,158.088932 145.218144,158.309838 L152.67518,165.663431 C152.893822,165.878839 153.191425,166 153.501881,166 C153.812337,166 154.10994,165.878839 154.328581,165.663431 L161.781856,158.309838 L161.785617,158.309838 Z" transform="rotate(-45 153.5 146)"/></g></svg>